<mxfile host="app.diagrams.net" modified="2021-03-23T01:31:46.155Z" agent="5.0 (Macintosh; Intel Mac OS X 10_13_6) AppleWebKit/537.36 (KHTML, like Gecko) Chrome/89.0.4389.90 Safari/537.36" etag="9FM_UmjpTJAQ-o6rSgnY" version="14.4.9" type="github">
  <diagram id="U5W-lC2-Kjb87hNVYtiT" name="Page-1">
    <mxGraphModel dx="946" dy="525" grid="1" gridSize="10" guides="1" tooltips="1" connect="1" arrows="1" fold="1" page="1" pageScale="1" pageWidth="827" pageHeight="1169" math="0" shadow="0">
      <root>
        <mxCell id="0" />
        <mxCell id="1" parent="0" />
        <mxCell id="eCf3Me3Tg0GHTPy_ZmjH-1" value="" style="line;strokeWidth=2;html=1;" vertex="1" parent="1">
          <mxGeometry x="90" y="150" width="650" height="10" as="geometry" />
        </mxCell>
      </root>
    </mxGraphModel>
  </diagram>
</mxfile>
